<svg width="162" height="162" viewBox="0 0 162 162" fill="none" xmlns="http://www.w3.org/2000/svg">
<rect x="53.665" y="-3.36524" width="125" height="125" rx="62.5" transform="rotate(27.1446 53.665 -3.36524)" fill="url(#paint0_linear_1_160)"/>
<rect x="53.665" y="-3.36524" width="125" height="125" rx="62.5" transform="rotate(27.1446 53.665 -3.36524)" stroke="url(#paint1_linear_1_160)" stroke-width="5"/>
<path fill-rule="evenodd" clip-rule="evenodd" d="M88.8883 95.4796C89.274 93.5708 88.405 91.497 86.566 90.4353L84.4997 89.2423L87.9608 83.2474C88.2668 82.7174 88.3426 82.0835 88.1714 81.485C88.0003 80.8865 87.5963 80.3725 87.0482 80.0561L74.6504 72.8982L76.9578 68.9016L81.0905 71.2876C81.6385 71.604 82.2856 71.6969 82.8895 71.5459C83.4933 71.3949 84.0045 71.0123 84.3105 70.4823L86.6179 66.4857L90.7505 68.8716C91.8466 69.5044 93.1408 69.6903 94.3485 69.3882C95.5563 69.0861 96.5786 68.321 97.1906 67.261L97.6636 66.4417C99.5794 68.833 100.891 71.6286 101.485 74.5892C102.079 77.5498 101.939 80.5872 101.077 83.4414C100.214 86.2957 98.6549 88.8818 96.5322 90.9783C94.4095 93.0748 91.7867 94.6193 88.8883 95.4796ZM71.7003 92.3237C64.1038 86.6323 61.678 76.2794 66.3852 68.1263C67.1005 66.8874 67.958 65.7838 68.8843 64.7999L73.2556 80.0861L72.1018 82.0844C71.4899 83.1444 71.3384 84.4123 71.6807 85.6093C72.0229 86.8062 72.831 87.8342 73.927 88.467L71.7003 92.3237ZM94.4528 57.6872C91.7393 56.1205 88.7539 55.0861 85.6672 54.6429C82.5804 54.1998 79.4527 54.3566 76.4627 55.1044C70.424 56.6147 65.3124 60.4405 62.2526 65.7404C59.1927 71.0402 58.4352 77.3798 60.1466 83.3646C60.9941 86.328 62.4221 89.1151 64.3493 91.5667C66.2764 94.0183 68.6649 96.0865 71.3784 97.6532C76.8586 100.817 83.3299 101.746 89.3686 100.236C95.4073 98.7257 100.519 94.8998 103.579 89.6C105.094 86.9758 106.06 84.0687 106.421 81.0447C106.782 78.0207 106.532 74.9391 105.685 71.9757C104.837 69.0123 103.409 66.2253 101.482 63.7736C99.5548 61.322 97.1663 59.2538 94.4528 57.6872Z" fill="white"/>
<path d="M121.314 68.3441C121.746 71.1306 123.771 73.7973 124.233 76.61C126.37 70.3176 124.858 63.3047 120.567 59.3577C121.882 62.6392 120.883 65.5684 121.314 68.3441ZM53.8134 48.4457C61.6666 42.6851 65.7894 47.245 72.1781 41.1304C69.6885 42.6979 63.589 40.447 57.6732 44.7432C60.9687 42.0642 63.3456 36.4251 67.2025 34.8726C57.6162 36.1546 55.6642 46.0549 53.8134 48.4457ZM49.2715 70.5119C48.1458 73.8685 43.8422 77.1711 44.3016 82.9639C43.3441 77.811 37.6071 73.3255 38.0938 66.6089C33.8535 81.2721 43.7059 83.4268 45.8172 88.3648C45.4079 81.9703 49.6956 80.3558 49.2715 70.5119ZM43.6676 78.0117C45.9864 69.7978 50.6592 69.1846 52.1502 60.8824C49.657 64.6088 46.0933 65.0692 43.6789 73.1027C44.1918 65.4182 40.929 60.5527 41.9862 55.6773C35.5803 66.9802 43.2716 73.6467 43.6676 78.0117ZM50.0251 97.6898C49.607 92.5329 52.5621 91.466 49.2529 80.6381C49.3546 83.9522 46.0203 86.1218 48.0903 93.6838C45.0392 88.0594 37.811 85.5417 36.9141 79.8302C36.0829 93.7396 48.1057 94.8102 50.0191 97.7003L50.0251 97.6898ZM85.9114 115.524C93.4973 113.533 93.7158 109.541 96.632 107.988C85.6115 110.547 86.1498 113.636 81.4767 115.848C84.9382 116.057 91.8769 125.934 103.492 118.269C98.1036 120.361 92.3065 115.349 85.9054 115.535L85.9114 115.524ZM97.0975 113.432C102.33 110.934 103.052 105.555 105.396 102.902C96.6592 107.456 97.4049 111.977 91.6423 114.831C96.9924 114.206 103.757 121.631 114.345 110.642C108.776 114.415 102.033 111.695 97.0915 113.442L97.0975 113.432ZM80.4179 115.914C78.2781 113.72 75.8945 111.789 73.3118 110.156C70.9119 108.692 68.2411 107.724 65.445 107.307C63.6859 105.095 61.5139 103.266 59.0474 101.92C56.3412 100.499 53.4755 99.3999 50.5043 98.6435C45.5059 97.3529 41.2534 96.1312 38.9916 92.5531C40.4282 97.2453 43.469 100.35 49.0575 102.779C53.6994 104.81 58.5473 104.562 62.6385 106.971L62.8016 107.065C59.4346 106.924 56.0482 107.465 52.8366 108.657L54.6567 110.079C54.6567 110.079 59.2773 106.904 64.7402 108.527C68.8812 112.448 68.4384 118.036 68.4384 118.036L70.5797 118.901C69.9983 115.532 68.7683 112.339 66.96 109.503L67.1264 109.599C71.2577 111.938 73.4605 116.256 77.5402 119.261C82.4419 122.879 86.6648 123.945 91.4359 122.869C87.2123 122.689 84.0267 119.611 80.4099 115.928L80.4179 115.914ZM56.929 53.2818C53.0985 55.8188 49.8723 55.0413 45.9203 62.5859C48.2053 55.1686 46.0443 50.6934 48.5045 46.5399C39.7461 55.9977 45.6071 61.1066 44.6703 66.6498C48.1957 59.9672 52.9501 60.95 56.931 53.2784M64.2623 46.3076C63.1243 46.8563 62.4707 46.989 60.0036 47.4566C56.3446 48.0774 52.9694 49.9938 50.4753 52.8668C52.9462 48.9791 53.9005 41.8833 57.8786 38.6062C46.6321 44.0631 49.9553 53.137 48.3062 56.516C53.4905 51.1807 57.1371 53.2212 64.2603 46.3111M120.061 93.0467C121.298 89.4527 121.272 85.5756 119.987 82.0971C119.158 79.7268 118.948 79.0909 118.852 77.8345C116.42 87.4669 120.022 89.5928 117.968 96.7401C120.072 93.6278 129.593 91.9654 128.689 79.4933C127.86 84.5886 122.194 88.9595 120.062 93.0521M121.868 101.825C118.171 105.176 112.331 104.782 105.919 109.084C111.677 102.962 110.308 99.6533 112.267 95.6371C105.82 101.092 107.658 105.45 101.677 111.55C105.677 109.681 115.296 113.009 121.881 101.809L121.868 101.825ZM116.498 87.6786C111.841 94.9601 115.076 98.5899 111.06 104.961C115.388 101.386 122.762 103.913 126.557 91.5895C124.194 95.7899 119.222 96.1838 113.98 101.834C118.489 94.6619 116.203 92.2567 116.495 87.6767M71.2359 39.4642C73.8689 38.4478 75.9002 36.1288 79.3947 35.6191C73.8314 33.8771 66.9864 36.0694 62.621 41.0706C65.28 40.0321 68.603 40.4575 71.2347 39.4357L71.2359 39.4642ZM119.383 68.4122C117.28 77.0057 123.291 78.2963 122.227 87.9722C123.372 85.174 130.973 78.5353 127.291 69.5923C127.871 73.7157 124.183 78.5887 123.507 82.7802C124.272 75.4822 119.286 71.3331 119.379 68.3817L119.383 68.4122Z" fill="white"/>
<defs>
<linearGradient id="paint0_linear_1_160" x1="83.249" y1="11" x2="170.249" y2="158" gradientUnits="userSpaceOnUse">
<stop stop-color="#F9CB01"/>
<stop offset="1" stop-color="#9D8000"/>
</linearGradient>
<linearGradient id="paint1_linear_1_160" x1="77.749" y1="-8" x2="155.249" y2="131.5" gradientUnits="userSpaceOnUse">
<stop stop-color="#FFD000"/>
<stop offset="1" stop-color="#D2AB00"/>
</linearGradient>
</defs>
</svg>
