<svg width="35" height="34" viewBox="0 0 35 34" fill="none" xmlns="http://www.w3.org/2000/svg">
<path d="M17.6919 35.6826C27.9462 35.6826 36.2589 27.3699 36.2589 17.1156C36.2589 6.86131 27.9462 -1.45143 17.6919 -1.45143C7.43762 -1.45143 -0.875111 6.86131 -0.875111 17.1156C-0.875111 27.3699 7.43762 35.6826 17.6919 35.6826Z" fill="#26A17B" stroke="#FDAF18" stroke-width="3.7134"/>
<path fill-rule="evenodd" clip-rule="evenodd" d="M19.6992 18.5599V18.5578C19.5843 18.5661 18.9922 18.6017 17.671 18.6017C16.6162 18.6017 15.8736 18.5703 15.6125 18.5578V18.5609C11.5519 18.3823 8.52108 17.6753 8.52108 16.8293C8.52108 15.9844 11.5519 15.2773 15.6125 15.0956V17.857C15.8778 17.8758 16.6381 17.9207 17.6888 17.9207C18.9494 17.9207 19.5812 17.8685 19.6992 17.858V15.0977C23.7515 15.2784 26.775 15.9854 26.775 16.8293C26.775 17.6753 23.7515 18.3802 19.6992 18.5599ZM19.6992 14.8105V12.3395H25.3536V8.57129H9.95816V12.3395H15.6125V14.8095C11.0172 15.0204 7.56128 15.9311 7.56128 17.0215C7.56128 18.1118 11.0172 19.0215 15.6125 19.2335V27.1521H19.6992V19.2314C24.2873 19.0205 27.7348 18.1108 27.7348 17.0215C27.7348 15.9322 24.2873 15.0225 19.6992 14.8105Z" fill="#FDAF18"/>
</svg>
