<svg width="25" height="24" viewBox="0 0 25 24" fill="none" xmlns="http://www.w3.org/2000/svg">
<rect x="0.25" width="24" height="24" rx="12" fill="white"/>
<path d="M12.2284 14.1999C11.9938 14.1999 11.8071 14.1253 11.6684 13.9759C11.5404 13.8159 11.4764 13.6026 11.4764 13.3359C11.4764 13.0266 11.5138 12.7386 11.5884 12.4719C11.6631 12.1946 11.7804 11.9173 11.9404 11.6399C12.1111 11.3626 12.3351 11.0799 12.6124 10.7919C12.8044 10.5679 12.9591 10.3759 13.0764 10.2159C13.2044 10.0453 13.2898 9.88527 13.3324 9.73593C13.3858 9.57593 13.4124 9.41593 13.4124 9.25593C13.4124 8.95727 13.3004 8.7226 13.0764 8.55193C12.8631 8.38127 12.5538 8.29593 12.1484 8.29593C11.7644 8.29593 11.4071 8.34393 11.0764 8.43993C10.7564 8.53593 10.4418 8.6746 10.1324 8.85593C9.85512 9.00527 9.60445 9.06393 9.38045 9.03193C9.16712 8.98927 8.99645 8.89327 8.86845 8.74393C8.74045 8.58393 8.66578 8.39727 8.64445 8.18393C8.62312 7.9706 8.67112 7.7626 8.78845 7.55993C8.90578 7.3466 9.10312 7.15993 9.38045 6.99993C9.81778 6.74393 10.3031 6.55193 10.8364 6.42393C11.3698 6.29593 11.8658 6.23193 12.3244 6.23193C13.0284 6.23193 13.6471 6.34927 14.1804 6.58393C14.7138 6.8186 15.1244 7.1386 15.4124 7.54393C15.7111 7.94927 15.8604 8.42393 15.8604 8.96793C15.8604 9.2986 15.8124 9.60793 15.7164 9.89593C15.6204 10.1839 15.4658 10.4719 15.2524 10.7599C15.0391 11.0373 14.7458 11.3306 14.3724 11.6399C14.0418 11.9173 13.7804 12.1679 13.5884 12.3919C13.3964 12.6053 13.2578 12.8133 13.1724 13.0159C13.0871 13.2079 13.0284 13.4159 12.9964 13.6399C12.9644 13.7999 12.8844 13.9333 12.7564 14.0399C12.6391 14.1466 12.4631 14.1999 12.2284 14.1999ZM12.1964 17.7679C11.7698 17.7679 11.4284 17.6399 11.1724 17.3839C10.9271 17.1279 10.8044 16.7973 10.8044 16.3919C10.8044 15.9973 10.9271 15.6773 11.1724 15.4319C11.4284 15.1759 11.7698 15.0479 12.1964 15.0479C12.6231 15.0479 12.9538 15.1759 13.1884 15.4319C13.4338 15.6773 13.5564 15.9973 13.5564 16.3919C13.5564 16.7973 13.4338 17.1279 13.1884 17.3839C12.9538 17.6399 12.6231 17.7679 12.1964 17.7679Z" fill="#4CBD0F"/>
</svg>
