<svg width="216" height="42" viewBox="0 0 216 42" fill="none" xmlns="http://www.w3.org/2000/svg">
<path d="M201.219 32.5715C200.253 32.5715 199.512 32.3246 198.998 31.8309C198.504 31.3166 198.257 30.5864 198.257 29.6401V13.7486C198.257 12.8024 198.504 12.0824 198.998 11.5886C199.512 11.0744 200.253 10.8172 201.219 10.8172H211.68C212.421 10.8172 212.976 11.0024 213.346 11.3726C213.717 11.7429 213.902 12.2778 213.902 12.9772C213.902 13.6972 213.717 14.2526 213.346 14.6435C212.976 15.0138 212.421 15.1989 211.68 15.1989H203.688V19.3338H211.001C211.721 19.3338 212.266 19.5189 212.637 19.8892C213.027 20.2595 213.223 20.8046 213.223 21.5246C213.223 22.2446 213.027 22.7898 212.637 23.1601C212.266 23.5304 211.721 23.7155 211.001 23.7155H203.688V28.1898H211.68C212.421 28.1898 212.976 28.3852 213.346 28.7761C213.717 29.1464 213.902 29.6812 213.902 30.3806C213.902 31.1006 213.717 31.6458 213.346 32.0161C212.976 32.3864 212.421 32.5715 211.68 32.5715H201.219Z" fill="white"/>
<path d="M173.609 32.8492C172.786 32.8492 172.148 32.6229 171.696 32.1704C171.264 31.7178 171.048 31.0801 171.048 30.2572V13.1315C171.048 12.2881 171.284 11.6504 171.757 11.2184C172.23 10.7658 172.899 10.5395 173.763 10.5395C174.483 10.5395 175.049 10.6835 175.46 10.9715C175.892 11.2389 176.283 11.6915 176.633 12.3292L183.267 24.2401H182.187L188.79 12.3292C189.161 11.6915 189.552 11.2389 189.963 10.9715C190.395 10.6835 190.971 10.5395 191.691 10.5395C192.514 10.5395 193.141 10.7658 193.573 11.2184C194.026 11.6504 194.252 12.2881 194.252 13.1315V30.2572C194.252 31.0801 194.036 31.7178 193.604 32.1704C193.172 32.6229 192.534 32.8492 191.691 32.8492C190.868 32.8492 190.23 32.6229 189.778 32.1704C189.346 31.7178 189.13 31.0801 189.13 30.2572V19.6424H189.778L184.81 28.2824C184.522 28.7349 184.213 29.0744 183.884 29.3006C183.576 29.5269 183.154 29.6401 182.619 29.6401C182.105 29.6401 181.683 29.5269 181.354 29.3006C181.025 29.0744 180.726 28.7349 180.459 28.2824L175.46 19.6115H176.17V30.2572C176.17 31.0801 175.954 31.7178 175.522 32.1704C175.09 32.6229 174.452 32.8492 173.609 32.8492Z" fill="white"/>
<path d="M154.994 32.5715C154.027 32.5715 153.287 32.3246 152.772 31.8309C152.279 31.3166 152.032 30.5864 152.032 29.6401V13.7486C152.032 12.8024 152.279 12.0824 152.772 11.5886C153.287 11.0744 154.027 10.8172 154.994 10.8172H165.455C166.195 10.8172 166.751 11.0024 167.121 11.3726C167.491 11.7429 167.676 12.2778 167.676 12.9772C167.676 13.6972 167.491 14.2526 167.121 14.6435C166.751 15.0138 166.195 15.1989 165.455 15.1989H157.463V19.3338H164.776C165.496 19.3338 166.041 19.5189 166.411 19.8892C166.802 20.2595 166.997 20.8046 166.997 21.5246C166.997 22.2446 166.802 22.7898 166.411 23.1601C166.041 23.5304 165.496 23.7155 164.776 23.7155H157.463V28.1898H165.455C166.195 28.1898 166.751 28.3852 167.121 28.7761C167.491 29.1464 167.676 29.6812 167.676 30.3806C167.676 31.1006 167.491 31.6458 167.121 32.0161C166.751 32.3864 166.195 32.5715 165.455 32.5715H154.994Z" fill="white"/>
<path d="M127.383 32.8492C126.56 32.8492 125.923 32.6229 125.47 32.1704C125.038 31.7178 124.822 31.0801 124.822 30.2572V13.1315C124.822 12.2881 125.059 11.6504 125.532 11.2184C126.005 10.7658 126.674 10.5395 127.538 10.5395C128.258 10.5395 128.823 10.6835 129.235 10.9715C129.667 11.2389 130.058 11.6915 130.407 12.3292L137.042 24.2401H135.962L142.565 12.3292C142.935 11.6915 143.326 11.2389 143.738 10.9715C144.17 10.6835 144.746 10.5395 145.466 10.5395C146.288 10.5395 146.916 10.7658 147.348 11.2184C147.8 11.6504 148.027 12.2881 148.027 13.1315V30.2572C148.027 31.0801 147.811 31.7178 147.379 32.1704C146.947 32.6229 146.309 32.8492 145.466 32.8492C144.643 32.8492 144.005 32.6229 143.552 32.1704C143.12 31.7178 142.904 31.0801 142.904 30.2572V19.6424H143.552L138.584 28.2824C138.296 28.7349 137.988 29.0744 137.659 29.3006C137.35 29.5269 136.928 29.6401 136.394 29.6401C135.879 29.6401 135.458 29.5269 135.128 29.3006C134.799 29.0744 134.501 28.7349 134.234 28.2824L129.235 19.6115H129.944V30.2572C129.944 31.0801 129.728 31.7178 129.296 32.1704C128.864 32.6229 128.227 32.8492 127.383 32.8492Z" fill="white"/>
<path d="M110.361 32.9109C108.16 32.9109 106.226 32.4481 104.56 31.5224C102.894 30.5761 101.598 29.2595 100.672 27.5726C99.767 25.8858 99.3144 23.9212 99.3144 21.6789C99.3144 19.9921 99.5715 18.4595 100.086 17.0812C100.621 15.7029 101.372 14.5201 102.338 13.5326C103.326 12.5452 104.498 11.7944 105.856 11.2801C107.214 10.7452 108.716 10.4778 110.361 10.4778C112.562 10.4778 114.486 10.9406 116.132 11.8664C117.798 12.7921 119.094 14.0984 120.02 15.7852C120.945 17.4515 121.408 19.4161 121.408 21.6789C121.408 23.3658 121.141 24.8984 120.606 26.2766C120.092 27.6549 119.341 28.8481 118.353 29.8561C117.386 30.8435 116.224 31.6046 114.866 32.1395C113.509 32.6538 112.007 32.9109 110.361 32.9109ZM110.361 28.1589C111.452 28.1589 112.377 27.9018 113.138 27.3875C113.9 26.8732 114.486 26.1326 114.897 25.1658C115.309 24.1989 115.514 23.0366 115.514 21.6789C115.514 19.6424 115.062 18.0584 114.157 16.9269C113.252 15.7955 111.986 15.2298 110.361 15.2298C109.292 15.2298 108.366 15.4869 107.584 16.0012C106.823 16.4949 106.237 17.2252 105.825 18.1921C105.414 19.1384 105.208 20.3006 105.208 21.6789C105.208 23.7155 105.661 25.3098 106.566 26.4618C107.471 27.5932 108.736 28.1589 110.361 28.1589Z" fill="white"/>
<path d="M79.1396 32.8492C78.2756 32.8492 77.6173 32.6229 77.1648 32.1704C76.7122 31.7178 76.4859 31.0492 76.4859 30.1646V13.3475C76.4859 12.4424 76.7122 11.7532 77.1648 11.2801C77.6173 10.7864 78.2139 10.5395 78.9545 10.5395C79.6128 10.5395 80.127 10.6629 80.4973 10.9098C80.8676 11.1566 81.279 11.5681 81.7316 12.1441L91.5133 24.3635H90.6493V13.1932C90.6493 12.3292 90.8653 11.6709 91.2973 11.2184C91.7499 10.7658 92.4082 10.5395 93.2722 10.5395C94.1362 10.5395 94.7842 10.7658 95.2162 11.2184C95.6688 11.6709 95.895 12.3292 95.895 13.1932V30.2881C95.895 31.0698 95.6893 31.6972 95.2779 32.1704C94.8665 32.6229 94.311 32.8492 93.6116 32.8492C92.9122 32.8492 92.3568 32.7258 91.9453 32.4789C91.5545 32.2115 91.1328 31.8001 90.6802 31.2446L80.8985 18.9944H81.7625V30.1646C81.7625 31.0492 81.5362 31.7178 81.0836 32.1704C80.6516 32.6229 80.0036 32.8492 79.1396 32.8492Z" fill="white"/>
<path d="M63.0307 32.9109C61.4467 32.9109 60.0479 32.7155 58.8342 32.3246C57.6205 31.9132 56.5919 31.3064 55.7485 30.5041C54.9256 29.7018 54.2982 28.7041 53.8662 27.5109C53.4547 26.2972 53.249 24.8984 53.249 23.3144V13.4092C53.249 12.4629 53.4959 11.7532 53.9896 11.2801C54.4833 10.7864 55.1827 10.5395 56.0879 10.5395C57.0136 10.5395 57.713 10.7864 58.1862 11.2801C58.6799 11.7532 58.9267 12.4629 58.9267 13.4092V23.3761C58.9267 24.9601 59.2765 26.1532 59.9759 26.9555C60.6753 27.7578 61.6936 28.1589 63.0307 28.1589C64.3473 28.1589 65.3553 27.7578 66.0547 26.9555C66.7542 26.1532 67.1039 24.9601 67.1039 23.3761V13.4092C67.1039 12.4629 67.3405 11.7532 67.8136 11.2801C68.3073 10.7864 69.0067 10.5395 69.9119 10.5395C70.817 10.5395 71.5062 10.7864 71.9793 11.2801C72.4525 11.7532 72.689 12.4629 72.689 13.4092V23.3144C72.689 25.4332 72.3187 27.2126 71.5782 28.6526C70.8582 30.0721 69.7782 31.1418 68.3382 31.8618C66.8982 32.5612 65.129 32.9109 63.0307 32.9109Z" fill="white"/>
<path fill-rule="evenodd" clip-rule="evenodd" d="M29.5514 22.4522C29.269 21.6119 28.4543 20.9921 27.4876 20.9921H26.4014V17.8407C26.4014 17.5621 26.287 17.2949 26.0833 17.0979C25.8796 16.9009 25.6033 16.7903 25.3152 16.7903H18.798V14.6894H20.9704C21.2585 14.6894 21.5348 14.5787 21.7385 14.3817C21.9422 14.1847 22.0566 13.9175 22.0566 13.6389V11.538H24.229C24.8052 11.538 25.3577 11.3166 25.7651 10.9227C26.1725 10.5287 26.4014 9.99428 26.4014 9.43708V9.00639C27.701 9.5131 28.8543 10.3168 29.7626 11.3487C30.6709 12.3807 31.307 13.6101 31.6167 14.9317C31.9263 16.2534 31.9001 17.6279 31.5405 18.9376C31.1808 20.2474 30.4983 21.4533 29.5514 22.4522ZM22.0566 25.1204C17.7661 24.6057 14.4532 21.0761 14.4532 16.7903C14.4532 16.139 14.5401 15.5087 14.6813 14.91L19.8842 19.9416V20.9921C19.8842 21.5493 20.1131 22.0837 20.5205 22.4777C20.9279 22.8717 21.4804 23.093 22.0566 23.093V25.1204ZM23.1428 6.28571C21.7164 6.28571 20.3039 6.55742 18.9861 7.08533C17.6682 7.61323 16.4708 8.38699 15.4622 9.36243C13.4252 11.3324 12.2808 14.0043 12.2808 16.7903C12.2808 19.5763 13.4252 22.2481 15.4622 24.2181C16.4708 25.1936 17.6682 25.9673 18.9861 26.4952C20.3039 27.0231 21.7164 27.2948 23.1428 27.2948C26.0236 27.2948 28.7864 26.1881 30.8234 24.2181C32.8605 22.2481 34.0048 19.5763 34.0048 16.7903C34.0048 15.4108 33.7239 14.0448 33.178 12.7704C32.6322 11.4959 31.8321 10.3379 30.8234 9.36243C29.8148 8.38699 28.6174 7.61323 27.2995 7.08533C25.9817 6.55742 24.5692 6.28571 23.1428 6.28571Z" fill="#0C91CE"/>
<path d="M36.1586 4.37312C36.9635 5.37317 38.3687 5.9637 39.1912 6.96741C38.6015 4.00016 36.4088 1.57955 33.8189 1C35.0841 1.99457 35.3571 3.37672 36.1586 4.37312ZM5.01687 11.8927C6.8018 7.834 9.46519 8.69327 10.5921 4.82835C9.96742 6.01306 7.05029 6.514 5.69585 9.55438C6.38532 7.74807 6.03883 4.98375 7.20603 3.49373C3.71843 6.18126 5.20237 10.5288 5.01687 11.8927ZM8.24899 21.6263C8.56923 23.2059 7.62427 25.4876 9.12395 27.6668C7.57352 25.8532 4.29065 25.3907 2.95371 22.6318C4.61964 29.3781 8.99446 27.985 10.9509 29.4512C9.33394 27.0233 10.6569 25.4108 8.24899 21.6263ZM7.74676 25.8587C6.7913 22.0925 8.49398 20.7871 7.19203 17.1745C7.05729 19.2112 5.75709 20.2039 6.63381 23.9208C5.08687 20.7743 2.69297 19.5988 2 17.436C2.04725 23.3503 6.59706 24.2279 7.74676 25.8587ZM14.7325 32.1698C13.3938 30.2319 14.316 29.1386 10.5466 25.6229C11.3411 26.9063 10.5204 28.5206 13.0578 31.0308C10.5746 29.5079 7.15179 30.1606 5.4981 28.1129C8.33649 33.786 13.3203 31.4714 14.7325 32.1753V32.1698ZM32.9405 31.0326C35.4779 28.5206 34.6554 26.8971 35.4516 25.621C31.6893 29.1386 32.6045 30.2337 31.2658 32.1698C32.678 31.4641 37.6618 33.7787 40.4967 28.1129C38.8482 30.1642 35.4219 29.5079 32.9405 31.0381V31.0326ZM36.8743 27.6614C38.3687 25.4857 37.429 23.2004 37.7493 21.6208C35.3414 25.4053 36.6643 27.0178 35.0421 29.4549C37.009 27.9904 41.3664 29.3781 43.0393 22.6355C41.7023 25.3907 38.4247 25.8532 36.8743 27.6668V27.6614ZM30.8633 32.4367C29.5203 32.0588 28.1408 31.8399 26.751 31.7841C25.4715 31.7531 24.1984 31.9796 23.0009 32.4514C21.8039 31.9799 20.5314 31.7533 19.2525 31.7841C17.8621 31.8397 16.482 32.0587 15.1385 32.4367C12.874 33.0657 10.9194 33.552 9.2132 32.6561C10.8476 34.1791 12.7533 34.7111 15.5094 34.3966C17.8018 34.1407 19.6568 32.9395 21.8179 32.9578H21.9037C20.544 33.6685 19.3321 34.6526 18.3373 35.8537L19.3785 36C19.3785 36 20.4775 33.6964 23.0009 33.0931C25.526 33.6964 26.6232 36 26.6232 36L27.6644 35.8537C26.6684 34.6579 25.4565 33.6788 24.0981 32.9724H24.1856C26.3467 32.9541 28.1982 34.1553 30.4906 34.4113C33.2467 34.7221 35.1541 34.1809 36.7903 32.6708C35.0841 33.5611 33.1277 33.073 30.8633 32.4441V32.4367ZM7.34603 13.0902C6.41332 14.9623 4.96438 15.3902 5.12362 19.2642C4.33615 15.8198 2.46548 14.5473 2.48998 12.3498C1.18978 18.0722 4.66339 18.7523 5.55585 21.151C5.42461 17.7139 7.52277 17.0191 7.34603 13.0884M8.64972 8.67133C8.32599 9.14668 8.0985 9.34779 7.23228 10.0937C5.93097 11.1714 5.0365 12.6952 4.70714 14.3956C4.79638 12.3004 3.55744 9.28563 4.3799 7.08807C1.18803 11.7995 4.56364 14.6205 4.68264 16.328C5.5121 13.0445 7.41427 13.0189 8.64972 8.67316M41.2876 14.3974C40.9574 12.6988 40.0645 11.1762 38.766 10.0974C37.8998 9.35144 37.6723 9.14851 37.3485 8.67499C38.5822 13.0262 40.4861 13.0445 41.3034 16.3299C41.4241 14.6241 44.7997 11.8013 41.6044 7.0899C42.4373 9.28745 41.1984 12.3004 41.2894 14.3992M43.9983 17.4469C43.3035 19.6097 40.9114 20.7835 39.3627 23.939C40.2394 20.2149 38.9462 19.2222 38.8045 17.1928C37.5043 20.8109 39.221 22.1108 38.2515 25.877C39.4029 24.2297 43.9528 23.3522 44 17.4378L43.9983 17.4469ZM38.661 13.092C38.4825 17.0228 40.5841 17.7175 40.4511 21.1436C41.3436 18.7486 44.826 18.0667 43.517 12.3443C43.5415 14.5382 41.6709 15.8253 40.8904 19.2459C41.0356 15.392 39.5867 14.9642 38.6592 13.092M9.84142 4.38592C10.6481 3.38587 10.9211 2.00919 12.1828 1.0128C9.59293 1.59235 7.39328 4.01478 6.81055 6.9802C7.62252 5.96552 9.02946 5.37683 9.83442 4.37495L9.84142 4.38592ZM35.4131 4.83932C36.5401 8.70607 39.2034 7.84679 40.9866 11.9037C40.8011 10.5398 42.2868 6.19223 38.7992 3.5047C39.9664 4.99838 39.6217 7.75904 40.3094 9.56535C38.9497 6.514 36.0396 6.01306 35.4044 4.82835L35.4131 4.83932Z" fill="#0C91CE"/>
</svg>
