<svg width="175" height="116" viewBox="0 0 175 116" fill="none" xmlns="http://www.w3.org/2000/svg">
<path fill-rule="evenodd" clip-rule="evenodd" d="M111.422 60.3642C110.357 57.2291 107.285 54.917 103.64 54.917H99.5444V43.1605C99.5444 42.1212 99.1129 41.1244 98.3448 40.3895C97.5767 39.6546 96.535 39.2417 95.4487 39.2417H70.8741V31.4041H79.0657C80.1519 31.4041 81.1937 30.9912 81.9618 30.2563C82.7299 29.5214 83.1614 28.5246 83.1614 27.4852V19.6476H91.3529C93.5255 19.6476 95.609 18.8218 97.1452 17.352C98.6814 15.8822 99.5444 13.8886 99.5444 11.8099V10.2032C104.445 12.0935 108.794 15.0919 112.218 18.9416C115.643 22.7913 118.042 27.3777 119.21 32.3082C120.377 37.2387 120.279 42.3665 118.922 47.2526C117.566 52.1387 114.993 56.6376 111.422 60.3642ZM83.1614 70.318C66.9832 68.3978 54.4911 55.2305 54.4911 39.2417C54.4911 36.812 54.8188 34.4608 55.3512 32.227L74.9699 50.9982V54.917C74.9699 56.9957 75.8329 58.9892 77.3691 60.4591C78.9053 61.9289 80.9889 62.7547 83.1614 62.7547V70.318ZM87.2572 0.0534668C81.8785 0.0534668 76.5526 1.0671 71.5834 3.0365C66.6142 5.00589 62.099 7.89248 58.2958 11.5314C50.6147 18.8807 46.2996 28.8484 46.2996 39.2417C46.2996 49.6351 50.6147 59.6028 58.2958 66.952C62.099 70.591 66.6142 73.4776 71.5834 75.447C76.5526 77.4163 81.8785 78.43 87.2572 78.43C98.1198 78.43 108.538 74.3012 116.219 66.952C123.9 59.6028 128.215 49.6351 128.215 39.2417C128.215 34.0954 127.155 28.9996 125.097 24.245C123.039 19.4905 120.022 15.1704 116.219 11.5314C112.415 7.89248 107.9 5.00589 102.931 3.0365C97.9618 1.0671 92.6358 0.0534668 87.2572 0.0534668ZM87.2572 101.698C93.1392 101.698 98.8834 107.177 98.8834 115.169H106.634C106.634 109.554 104.493 104.221 100.891 100.359C107.365 99.0676 113.49 96.8748 119.111 93.9255C119.012 98.6133 119.812 104.59 123.726 108.569C131.026 115.988 146.39 113.649 146.39 113.649C146.39 113.649 149.919 99.2822 142.62 91.8632C139.361 88.5512 134.495 87.1838 130.106 86.6849C133.582 83.8607 136.745 80.6991 139.536 77.2537C142.614 79.0033 153.118 84.3517 161.476 81.1114C171.382 77.2713 174.522 62.8232 174.522 62.8232C174.522 62.8232 161.603 54.601 151.697 58.4411C150.966 58.7246 150.271 59.066 149.612 59.4552C151.685 53.7068 152.898 47.5806 153.107 41.2144C156.914 37.9438 162.182 32.2489 162.182 25.7708C162.182 15.6256 149.264 7.40126 149.264 7.40126C149.264 7.40126 136.346 15.6256 136.346 25.7708C136.346 32.2112 141.552 37.8774 145.354 41.157C144.289 70.7057 118.686 94.3502 87.2572 94.3502C55.8285 94.3502 30.2252 70.7057 29.1606 41.157C32.9628 37.8774 38.1687 32.2112 38.1687 25.7708C38.1687 15.6256 25.2507 7.40126 25.2507 7.40126C25.2507 7.40126 12.3327 15.6256 12.3327 25.7708C12.3327 32.2489 17.5999 37.9438 21.4076 41.2144C21.6159 47.5806 22.8292 53.7068 24.9022 59.4552C24.2431 59.066 23.5485 58.7246 22.8171 58.4411C12.9117 54.601 -0.0078125 62.8232 -0.0078125 62.8232C-0.0078125 62.8232 3.13248 77.2713 13.0379 81.1114C21.3963 84.3517 31.9008 79.0033 34.9781 77.2537C37.7698 80.6991 40.932 83.8607 44.4081 86.6849C40.0194 87.1838 35.1535 88.5512 31.8948 91.8632C24.5954 99.2822 28.1248 113.649 28.1248 113.649C28.1248 113.649 43.4888 115.988 50.7881 108.569C54.7027 104.59 55.5028 98.6133 55.4032 93.9255C61.0247 96.8748 67.1492 99.0676 73.6238 100.359C70.0211 104.221 67.8802 109.554 67.8802 115.169H75.631C75.631 107.177 81.3751 101.698 87.2572 101.698ZM150.021 33.7822C152.867 30.8528 154.431 28.0129 154.431 25.7708C154.431 23.5287 152.867 20.6887 150.021 17.7593C149.769 17.4994 149.515 17.2483 149.264 17.0067C149.012 17.2483 148.758 17.4994 148.506 17.7593C145.66 20.6887 144.096 23.5287 144.096 25.7708C144.096 28.0129 145.66 30.8528 148.506 33.7822C148.758 34.0421 149.012 34.2932 149.264 34.5348C149.515 34.2932 149.769 34.0421 150.021 33.7822ZM136.952 96.875C138.565 98.5146 139.465 101.602 139.491 105.585C139.493 105.938 139.489 106.286 139.479 106.625C139.121 106.611 138.755 106.592 138.383 106.565C134.194 106.263 131.007 105.197 129.394 103.557C127.781 101.918 126.881 98.83 126.855 94.8476C126.852 94.4942 126.857 94.1467 126.867 93.8073C127.225 93.8211 127.591 93.8408 127.963 93.8676C132.152 94.1696 135.338 95.2354 136.952 96.875ZM145.184 106.391C145.188 106.39 145.189 106.39 145.187 106.391L145.184 106.391ZM164.122 66.0789C160.185 64.6905 156.82 64.3935 154.631 65.2422C152.442 66.0908 150.261 68.5377 148.478 72.1437C148.32 72.4637 148.171 72.7811 148.03 73.0935C148.361 73.2231 148.702 73.3504 149.052 73.4736C152.989 74.862 156.354 75.159 158.543 74.3103C160.732 73.4616 162.913 71.0148 164.696 67.4088C164.854 67.0888 165.003 66.7714 165.144 66.459C164.813 66.3294 164.471 66.2021 164.122 66.0789ZM166.936 61.3183C166.937 61.3143 166.937 61.3136 166.936 61.3161L166.936 61.3183ZM20.0835 25.7708C20.0835 28.0129 21.647 30.8528 24.493 33.7822C24.7455 34.0421 24.9989 34.2932 25.2507 34.5348C25.5025 34.2932 25.756 34.0421 26.0085 33.7822C28.8544 30.8528 30.4179 28.0129 30.4179 25.7708C30.4179 23.5287 28.8544 20.6887 26.0085 17.7593C25.756 17.4994 25.5026 17.2483 25.2507 17.0067C24.9989 17.2483 24.7455 17.4994 24.493 17.7593C21.647 20.6887 20.0835 23.5287 20.0835 25.7708ZM20.9099 38.0529C20.9063 38.0552 20.9057 38.0556 20.9079 38.0542L20.9099 38.0529ZM35.0232 105.585C35.0497 101.602 35.9496 98.5146 37.5628 96.875C39.176 95.2354 42.3626 94.1696 46.5514 93.8676C46.9231 93.8408 47.2891 93.8211 47.6471 93.8073C47.6574 94.1467 47.6621 94.4942 47.6597 94.8476C47.6332 98.83 46.7333 101.918 45.1201 103.557C43.5069 105.197 40.3203 106.263 36.1315 106.565C35.7598 106.592 35.3938 106.611 35.0358 106.625C35.0255 106.286 35.0208 105.938 35.0232 105.585ZM29.3302 106.391C29.3259 106.39 29.3252 106.39 29.3278 106.391L29.3302 106.391ZM19.8833 65.2422C17.6942 64.3935 14.3296 64.6905 10.3923 66.0789C10.0429 66.2021 9.70179 66.3294 9.37063 66.459C9.51116 66.7714 9.66041 67.0888 9.81861 67.4088C11.6016 71.0148 13.7825 73.4616 15.9716 74.3103C18.1607 75.159 21.5253 74.862 25.4627 73.4736C25.8121 73.3504 26.1532 73.2231 26.4843 73.0935C26.3438 72.7811 26.1946 72.4637 26.0364 72.1437C24.2534 68.5377 22.0724 66.0908 19.8833 65.2422Z" fill="#FDAF18"/>
</svg>
