<svg width="24" height="24" viewBox="0 0 24 24" fill="none" xmlns="http://www.w3.org/2000/svg">
<path fill-rule="evenodd" clip-rule="evenodd" d="M15.7437 13.8713C15.5823 13.3671 15.1168 12.9953 14.5644 12.9953H13.9437V11.1044C13.9437 10.9373 13.8783 10.777 13.7619 10.6588C13.6455 10.5406 13.4876 10.4742 13.323 10.4742H9.59885V9.21362H10.8402C11.0048 9.21362 11.1627 9.14721 11.2791 9.02901C11.3955 8.91081 11.4609 8.7505 11.4609 8.58334V7.3228H12.7023C13.0315 7.3228 13.3473 7.18999 13.5801 6.95359C13.8129 6.71719 13.9437 6.39657 13.9437 6.06225V5.80384C14.6863 6.10786 15.3453 6.59009 15.8643 7.20924C16.3833 7.8284 16.7469 8.56604 16.9238 9.35903C17.1007 10.152 17.0858 10.9767 16.8803 11.7626C16.6747 12.5484 16.2847 13.272 15.7437 13.8713ZM11.4609 15.4722C9.0092 15.1634 7.1161 13.0457 7.1161 10.4742C7.1161 10.0834 7.16575 9.70523 7.24644 9.34597L10.2195 12.365V12.9953C10.2195 13.3296 10.3503 13.6502 10.5831 13.8866C10.8159 14.123 11.1317 14.2558 11.4609 14.2558V15.4722ZM12.0816 4.17143C11.2665 4.17143 10.4594 4.33445 9.70633 4.6512C8.95328 4.96794 8.26904 5.43219 7.69267 6.01746C6.52866 7.19945 5.87472 8.80257 5.87472 10.4742C5.87472 12.1458 6.52866 13.7489 7.69267 14.9309C8.26904 15.5161 8.95328 15.9804 9.70633 16.2971C10.4594 16.6139 11.2665 16.7769 12.0816 16.7769C13.7278 16.7769 15.3065 16.1129 16.4705 14.9309C17.6345 13.7489 18.2885 12.1458 18.2885 10.4742C18.2885 9.64648 18.1279 8.82689 17.816 8.06221C17.5041 7.29753 17.0469 6.60272 16.4705 6.01746C15.8942 5.43219 15.2099 4.96794 14.4569 4.6512C13.7038 4.33445 12.8967 4.17143 12.0816 4.17143Z" fill="#FFF600"/>
<path d="M19.5192 3.02387C19.9792 3.6239 20.7821 3.97822 21.2521 4.58044C20.9151 2.80009 19.6622 1.34773 18.1822 1C18.9052 1.59674 19.0612 2.42603 19.5192 3.02387ZM1.72393 7.53563C2.74389 5.1004 4.26582 5.61596 4.9098 3.29701C4.55281 4.00784 2.88588 4.3084 2.11191 6.13263C2.5059 5.04884 2.3079 3.39025 2.97488 2.49624C0.981959 4.10875 1.82992 6.7173 1.72393 7.53563ZM3.57085 13.3758C3.75384 14.3235 3.21387 15.6925 4.07083 17.0001C3.18487 15.9119 1.30895 15.6344 0.544977 13.9791C1.49694 18.0268 3.99683 17.191 5.11479 18.0707C4.19082 16.614 4.94679 15.6465 3.57085 13.3758ZM3.28386 15.9152C2.73789 13.6555 3.71085 12.8723 2.96688 10.7047C2.88988 11.9267 2.14691 12.5224 2.64789 14.7525C1.76393 12.8646 0.395984 12.1593 0 10.8616C0.0269989 14.4102 2.62689 14.9367 3.28386 15.9152ZM7.2757 19.7019C6.51073 18.5391 7.03771 17.8832 4.8838 15.7737C5.33778 16.5438 4.8688 17.5124 6.31874 19.0185C4.8998 18.1047 2.94388 18.4963 1.99892 17.2678C3.62085 20.6716 6.46873 19.2829 7.2757 19.7052V19.7019ZM17.6803 19.0196C19.1302 17.5124 18.6602 16.5383 19.1152 15.7726C16.9653 17.8832 17.4883 18.5402 16.7233 19.7019C17.5303 19.2785 20.3782 20.6672 21.9981 17.2678C21.0561 18.4985 19.0982 18.1047 17.6803 19.0229V19.0196ZM19.9282 16.9968C20.7821 15.6914 20.2452 14.3203 20.4282 13.3725C19.0522 15.6432 19.8082 16.6107 18.8812 18.0729C20.0052 17.1943 22.4951 18.0268 23.451 13.9813C22.6871 15.6344 20.8141 15.9119 19.9282 17.0001V16.9968ZM16.4933 19.862C15.7259 19.6353 14.9376 19.5039 14.1434 19.4704C13.4123 19.4519 12.6848 19.5878 12.0005 19.8708C11.3165 19.5879 10.5894 19.452 9.85859 19.4704C9.06405 19.5038 8.27545 19.6352 7.50769 19.862C6.21374 20.2394 5.09679 20.5312 4.12183 19.9937C5.05579 20.9074 6.14474 21.2267 7.71968 21.038C9.02962 20.8844 10.0896 20.1637 11.3245 20.1747H11.3735C10.5966 20.6011 9.90405 21.1916 9.33561 21.9122L9.93059 22C9.93059 22 10.5586 20.6178 12.0005 20.2558C13.4434 20.6178 14.0704 22 14.0704 22L14.6654 21.9122C14.0962 21.1947 13.4037 20.6073 12.6275 20.1835H12.6775C13.9124 20.1725 14.9704 20.8932 16.2803 21.0468C17.8553 21.2332 18.9452 20.9085 19.8802 20.0025C18.9052 20.5367 17.7873 20.2438 16.4933 19.8664V19.862ZM3.05487 8.25413C2.5219 9.3774 1.69393 9.63409 1.78493 11.9585C1.33494 9.89187 0.265989 9.1284 0.279988 7.80986C-0.462981 11.2433 1.52194 11.6514 2.03192 13.0906C1.95692 11.0283 3.15587 10.6115 3.05487 8.25303M3.79984 5.6028C3.61485 5.88801 3.48486 6.00867 2.98988 6.45623C2.24627 7.10282 1.73514 8.01712 1.54694 9.03735C1.59793 7.78024 0.889963 5.97138 1.35994 4.65284C-0.463981 7.47968 1.46494 9.17227 1.53294 10.1968C2.00692 8.2267 3.09387 8.21135 3.79984 5.6039M22.4501 9.03845C22.2614 8.01928 21.7511 7.10572 21.0091 6.45842C20.5141 6.01087 20.3842 5.8891 20.1992 5.60499C20.9041 8.21573 21.9921 8.2267 22.4591 10.1979C22.5281 9.17447 24.457 7.48078 22.6311 4.65394C23.107 5.97247 22.3991 7.78024 22.4511 9.03954M23.999 10.8682C23.602 12.1658 22.2351 12.8701 21.3501 14.7634C21.8511 12.5289 21.1121 11.9333 21.0311 10.7157C20.2882 12.8865 21.2691 13.6665 20.7151 15.9262C21.3731 14.9378 23.973 14.4113 24 10.8627L23.999 10.8682ZM20.9491 8.25522C20.8471 10.6137 22.0481 11.0305 21.9721 13.0862C22.4821 11.6492 24.472 11.24 23.724 7.80657C23.738 9.12291 22.6691 9.89516 22.2231 11.9476C22.3061 9.63519 21.4781 9.3785 20.9481 8.25522M4.48081 3.03155C4.94179 2.43152 5.09779 1.60552 5.81876 1.00768C4.33882 1.35541 3.08187 2.80887 2.74889 4.58812C3.21287 3.97932 4.01683 3.6261 4.47681 3.02497L4.48081 3.03155ZM19.0932 3.30359C19.7372 5.62364 21.2591 5.10808 22.2781 7.54221C22.1721 6.72388 23.021 4.11534 21.0281 2.50282C21.6951 3.39903 21.4981 5.05542 21.8911 6.13921C21.1141 4.3084 19.4512 4.00784 19.0882 3.29701L19.0932 3.30359Z" fill="#FFF600"/>
</svg>
